<?xml version="1.0" encoding="utf-8"?>
<!-- Generator: Adobe Illustrator 21.0.2, SVG Export Plug-In . SVG Version: 6.00 Build 0)  -->
<svg version="1.1" id="Layer_1" xmlns="http://www.w3.org/2000/svg" xmlns:xlink="http://www.w3.org/1999/xlink" x="0px" y="0px"
	 viewBox="0 0 512 512" style="enable-background:new 0 0 512 512;" xml:space="preserve">
<style type="text/css">
	.st0{fill:url(#SVGID_1_);}
	.st1{fill:#FFFFFF;}
	.st2{fill:#005294;}
	.st3{fill:#C7CFE2;}
	.st4{fill:#014370;}
	.st5{fill:#FECD0D;}
</style>
<linearGradient id="SVGID_1_" gradientUnits="userSpaceOnUse" x1="0" y1="257.28" x2="512" y2="257.28" gradientTransform="matrix(1 0 0 -1 0 513.28)">
	<stop  offset="0" style="stop-color:#0094C3"/>
	<stop  offset="0.6123" style="stop-color:#0069A4"/>
	<stop  offset="1" style="stop-color:#005294"/>
</linearGradient>
<path class="st0" d="M256,512c141,0,256-115,256-256S397,0,256,0S0,115,0,256S115,512,256,512z"/>
<path class="st1" d="M470.3,51.3L115,173.5l108.2,21.6L470.3,51.3L470.3,51.3z"/>
<path class="st2" d="M115,173.5l108.2,21.6l71.8-41.8L115,173.5z"/>
<path class="st3" d="M223.2,195.1L240,322.7L470.3,51.3L223.2,195.1z"/>
<path class="st4" d="M223.2,195.1L240,322.7l102.9-121.3l-17.8-29l-35.2,29.4l5.1-48.5l0,0L223.2,195.1L223.2,195.1L223.2,195.1z"/>
<path class="st5" d="M470.3,51.3L262,225.1l-22,97.6L470.3,51.3z"/>
<path class="st2" d="M289.9,201.8L262,225.1l-22,97.6l102.9-121.3l-17.8-29L289.9,201.8L289.9,201.8L289.9,201.8z"/>
<path class="st1" d="M399.4,293.5l70.8-242.3L262,225.1L399.4,293.5L399.4,293.5z"/>
<path class="st2" d="M289.8,201.8l-27.9,23.3l137.4,68.5L325,172.4L289.8,201.8L289.8,201.8L289.8,201.8z"/>
<path class="st1" d="M46.1,358.6L190,218.5l6.4,8.4L46.1,358.6z M214.8,456.7L214.8,456.7l130.3-149.8l9.2,4.2L214.8,456.7z
	 M106.1,442L106.1,442l121.8-109l-6.6-5.7L106.1,442z"/>
</svg>
